<mxfile host="app.diagrams.net" agent="Mozilla/5.0 (Macintosh; Intel Mac OS X 10_15_7) AppleWebKit/537.36 (KHTML, like Gecko) Chrome/140.0.0.0 Safari/537.36" version="28.2.5">
  <diagram name="Page-1" id="_76NzrHsMJ6eOWgd0Dhp">
    <mxGraphModel dx="1234" dy="790" grid="1" gridSize="10" guides="1" tooltips="1" connect="1" arrows="1" fold="1" page="1" pageScale="1" pageWidth="850" pageHeight="1100" math="0" shadow="0">
      <root>
        <mxCell id="0" />
        <mxCell id="1" parent="0" />
        <mxCell id="UAhqLrGlFkXDv-Zl6xmA-19" value="Подает заявку" style="edgeStyle=orthogonalEdgeStyle;rounded=0;orthogonalLoop=1;jettySize=auto;html=1;entryX=0.5;entryY=0;entryDx=0;entryDy=0;" edge="1" parent="1" source="UAhqLrGlFkXDv-Zl6xmA-22" target="UAhqLrGlFkXDv-Zl6xmA-24">
          <mxGeometry relative="1" as="geometry" />
        </mxCell>
        <mxCell id="UAhqLrGlFkXDv-Zl6xmA-20" style="edgeStyle=orthogonalEdgeStyle;rounded=0;orthogonalLoop=1;jettySize=auto;html=1;" edge="1" parent="1" source="UAhqLrGlFkXDv-Zl6xmA-22" target="UAhqLrGlFkXDv-Zl6xmA-28">
          <mxGeometry relative="1" as="geometry">
            <Array as="points">
              <mxPoint x="50" y="160" />
              <mxPoint x="50" y="420" />
            </Array>
          </mxGeometry>
        </mxCell>
        <mxCell id="UAhqLrGlFkXDv-Zl6xmA-21" value="Звонит" style="edgeLabel;html=1;align=center;verticalAlign=middle;resizable=0;points=[];" vertex="1" connectable="0" parent="UAhqLrGlFkXDv-Zl6xmA-20">
          <mxGeometry x="-0.0818" y="2" relative="1" as="geometry">
            <mxPoint as="offset" />
          </mxGeometry>
        </mxCell>
        <mxCell id="UAhqLrGlFkXDv-Zl6xmA-22" value="Клиент" style="shape=umlActor;verticalLabelPosition=bottom;verticalAlign=top;html=1;outlineConnect=0;" vertex="1" parent="1">
          <mxGeometry x="140" y="140" width="20" height="40" as="geometry" />
        </mxCell>
        <mxCell id="UAhqLrGlFkXDv-Zl6xmA-23" style="edgeStyle=orthogonalEdgeStyle;rounded=0;orthogonalLoop=1;jettySize=auto;html=1;exitX=0.5;exitY=1;exitDx=0;exitDy=0;" edge="1" parent="1" source="UAhqLrGlFkXDv-Zl6xmA-24" target="UAhqLrGlFkXDv-Zl6xmA-31">
          <mxGeometry relative="1" as="geometry" />
        </mxCell>
        <mxCell id="UAhqLrGlFkXDv-Zl6xmA-24" value="Отделение банка" style="rounded=0;whiteSpace=wrap;html=1;" vertex="1" parent="1">
          <mxGeometry x="280" y="180" width="90" height="50" as="geometry" />
        </mxCell>
        <mxCell id="UAhqLrGlFkXDv-Zl6xmA-25" style="edgeStyle=orthogonalEdgeStyle;rounded=0;orthogonalLoop=1;jettySize=auto;html=1;entryX=0;entryY=0.5;entryDx=0;entryDy=0;" edge="1" parent="1" source="UAhqLrGlFkXDv-Zl6xmA-26" target="UAhqLrGlFkXDv-Zl6xmA-43">
          <mxGeometry relative="1" as="geometry" />
        </mxCell>
        <mxCell id="UAhqLrGlFkXDv-Zl6xmA-26" value="Сотрудник отдела кредитования" style="shape=umlActor;verticalLabelPosition=bottom;verticalAlign=top;html=1;outlineConnect=0;" vertex="1" parent="1">
          <mxGeometry x="140" y="310" width="20" height="40" as="geometry" />
        </mxCell>
        <mxCell id="UAhqLrGlFkXDv-Zl6xmA-27" style="edgeStyle=orthogonalEdgeStyle;rounded=0;orthogonalLoop=1;jettySize=auto;html=1;entryX=0;entryY=0.5;entryDx=0;entryDy=0;" edge="1" parent="1" source="UAhqLrGlFkXDv-Zl6xmA-28" target="UAhqLrGlFkXDv-Zl6xmA-47">
          <mxGeometry relative="1" as="geometry" />
        </mxCell>
        <mxCell id="UAhqLrGlFkXDv-Zl6xmA-28" value="Сотрудник кол центра" style="shape=umlActor;verticalLabelPosition=bottom;verticalAlign=top;html=1;outlineConnect=0;" vertex="1" parent="1">
          <mxGeometry x="140" y="400" width="20" height="40" as="geometry" />
        </mxCell>
        <mxCell id="UAhqLrGlFkXDv-Zl6xmA-29" value="Отправляет заявку" style="edgeStyle=orthogonalEdgeStyle;rounded=0;orthogonalLoop=1;jettySize=auto;html=1;entryX=0;entryY=0.5;entryDx=0;entryDy=0;" edge="1" parent="1" source="UAhqLrGlFkXDv-Zl6xmA-31" target="UAhqLrGlFkXDv-Zl6xmA-38">
          <mxGeometry relative="1" as="geometry" />
        </mxCell>
        <mxCell id="UAhqLrGlFkXDv-Zl6xmA-30" value="Письмо для бэк офиса" style="edgeStyle=orthogonalEdgeStyle;rounded=0;orthogonalLoop=1;jettySize=auto;html=1;entryX=0.5;entryY=0;entryDx=0;entryDy=0;" edge="1" parent="1" source="UAhqLrGlFkXDv-Zl6xmA-31" target="UAhqLrGlFkXDv-Zl6xmA-43">
          <mxGeometry relative="1" as="geometry">
            <Array as="points">
              <mxPoint x="390" y="240" />
              <mxPoint x="390" y="310" />
              <mxPoint x="335" y="310" />
            </Array>
          </mxGeometry>
        </mxCell>
        <mxCell id="UAhqLrGlFkXDv-Zl6xmA-31" value="Менеджер банка" style="shape=umlActor;verticalLabelPosition=bottom;verticalAlign=top;html=1;outlineConnect=0;" vertex="1" parent="1">
          <mxGeometry x="415" y="220" width="15" height="40" as="geometry" />
        </mxCell>
        <mxCell id="UAhqLrGlFkXDv-Zl6xmA-32" style="edgeStyle=orthogonalEdgeStyle;rounded=0;orthogonalLoop=1;jettySize=auto;html=1;entryX=0;entryY=0.5;entryDx=0;entryDy=0;" edge="1" parent="1" source="UAhqLrGlFkXDv-Zl6xmA-38" target="UAhqLrGlFkXDv-Zl6xmA-39">
          <mxGeometry relative="1" as="geometry" />
        </mxCell>
        <mxCell id="UAhqLrGlFkXDv-Zl6xmA-33" style="edgeStyle=orthogonalEdgeStyle;rounded=0;orthogonalLoop=1;jettySize=auto;html=1;exitX=1;exitY=0.5;exitDx=0;exitDy=0;entryX=0;entryY=0.5;entryDx=0;entryDy=0;" edge="1" parent="1" source="UAhqLrGlFkXDv-Zl6xmA-38" target="UAhqLrGlFkXDv-Zl6xmA-41">
          <mxGeometry relative="1" as="geometry" />
        </mxCell>
        <mxCell id="UAhqLrGlFkXDv-Zl6xmA-34" style="edgeStyle=orthogonalEdgeStyle;rounded=0;orthogonalLoop=1;jettySize=auto;html=1;entryX=0;entryY=0.5;entryDx=0;entryDy=0;" edge="1" parent="1" source="UAhqLrGlFkXDv-Zl6xmA-38" target="UAhqLrGlFkXDv-Zl6xmA-40">
          <mxGeometry relative="1" as="geometry" />
        </mxCell>
        <mxCell id="UAhqLrGlFkXDv-Zl6xmA-35" style="edgeStyle=orthogonalEdgeStyle;rounded=0;orthogonalLoop=1;jettySize=auto;html=1;" edge="1" parent="1" source="UAhqLrGlFkXDv-Zl6xmA-38" target="UAhqLrGlFkXDv-Zl6xmA-48">
          <mxGeometry relative="1" as="geometry" />
        </mxCell>
        <mxCell id="UAhqLrGlFkXDv-Zl6xmA-36" value="Отправка оповещения" style="edgeLabel;html=1;align=center;verticalAlign=middle;resizable=0;points=[];whiteSpace=wrap;" vertex="1" connectable="0" parent="UAhqLrGlFkXDv-Zl6xmA-35">
          <mxGeometry x="0.576" y="1" relative="1" as="geometry">
            <mxPoint as="offset" />
          </mxGeometry>
        </mxCell>
        <mxCell id="UAhqLrGlFkXDv-Zl6xmA-37" value="Ставка по депозиту" style="edgeStyle=orthogonalEdgeStyle;rounded=0;orthogonalLoop=1;jettySize=auto;html=1;" edge="1" parent="1" source="UAhqLrGlFkXDv-Zl6xmA-38" target="UAhqLrGlFkXDv-Zl6xmA-26">
          <mxGeometry relative="1" as="geometry">
            <Array as="points">
              <mxPoint x="585" y="70" />
              <mxPoint x="190" y="70" />
              <mxPoint x="190" y="330" />
            </Array>
          </mxGeometry>
        </mxCell>
        <mxCell id="UAhqLrGlFkXDv-Zl6xmA-38" value="АБС" style="rounded=0;whiteSpace=wrap;html=1;" vertex="1" parent="1">
          <mxGeometry x="540" y="210" width="90" height="50" as="geometry" />
        </mxCell>
        <mxCell id="UAhqLrGlFkXDv-Zl6xmA-39" value="Бюро кредитных историй" style="rounded=0;whiteSpace=wrap;html=1;" vertex="1" parent="1">
          <mxGeometry x="680" y="210" width="90" height="50" as="geometry" />
        </mxCell>
        <mxCell id="UAhqLrGlFkXDv-Zl6xmA-40" value="Кредитный конвейер" style="rounded=0;whiteSpace=wrap;html=1;" vertex="1" parent="1">
          <mxGeometry x="680" y="140" width="90" height="50" as="geometry" />
        </mxCell>
        <mxCell id="UAhqLrGlFkXDv-Zl6xmA-41" value="БД" style="rounded=0;whiteSpace=wrap;html=1;" vertex="1" parent="1">
          <mxGeometry x="680" y="280" width="90" height="50" as="geometry" />
        </mxCell>
        <mxCell id="UAhqLrGlFkXDv-Zl6xmA-42" style="edgeStyle=orthogonalEdgeStyle;rounded=0;orthogonalLoop=1;jettySize=auto;html=1;" edge="1" parent="1" source="UAhqLrGlFkXDv-Zl6xmA-43" target="UAhqLrGlFkXDv-Zl6xmA-45">
          <mxGeometry relative="1" as="geometry" />
        </mxCell>
        <mxCell id="UAhqLrGlFkXDv-Zl6xmA-43" value="Email" style="rounded=0;whiteSpace=wrap;html=1;" vertex="1" parent="1">
          <mxGeometry x="290" y="330" width="90" height="50" as="geometry" />
        </mxCell>
        <mxCell id="UAhqLrGlFkXDv-Zl6xmA-44" style="edgeStyle=orthogonalEdgeStyle;rounded=0;orthogonalLoop=1;jettySize=auto;html=1;entryX=0.5;entryY=1;entryDx=0;entryDy=0;" edge="1" parent="1" source="UAhqLrGlFkXDv-Zl6xmA-45" target="UAhqLrGlFkXDv-Zl6xmA-38">
          <mxGeometry relative="1" as="geometry" />
        </mxCell>
        <mxCell id="UAhqLrGlFkXDv-Zl6xmA-45" value="Сотрудник бэк офиса" style="shape=umlActor;verticalLabelPosition=bottom;verticalAlign=top;html=1;outlineConnect=0;" vertex="1" parent="1">
          <mxGeometry x="430" y="330" width="15" height="40" as="geometry" />
        </mxCell>
        <mxCell id="UAhqLrGlFkXDv-Zl6xmA-46" style="edgeStyle=orthogonalEdgeStyle;rounded=0;orthogonalLoop=1;jettySize=auto;html=1;entryX=0.5;entryY=1;entryDx=0;entryDy=0;" edge="1" parent="1" source="UAhqLrGlFkXDv-Zl6xmA-47" target="UAhqLrGlFkXDv-Zl6xmA-38">
          <mxGeometry relative="1" as="geometry" />
        </mxCell>
        <mxCell id="UAhqLrGlFkXDv-Zl6xmA-47" value="Система колл центра" style="rounded=0;whiteSpace=wrap;html=1;" vertex="1" parent="1">
          <mxGeometry x="280" y="420" width="90" height="50" as="geometry" />
        </mxCell>
        <mxCell id="UAhqLrGlFkXDv-Zl6xmA-48" value="СМС оповещение" style="rounded=0;whiteSpace=wrap;html=1;" vertex="1" parent="1">
          <mxGeometry x="600" y="480" width="90" height="50" as="geometry" />
        </mxCell>
        <mxCell id="UAhqLrGlFkXDv-Zl6xmA-49" style="edgeStyle=orthogonalEdgeStyle;rounded=0;orthogonalLoop=1;jettySize=auto;html=1;exitX=0.5;exitY=1;exitDx=0;exitDy=0;entryX=0;entryY=0.3333333333333333;entryDx=0;entryDy=0;entryPerimeter=0;" edge="1" parent="1" source="UAhqLrGlFkXDv-Zl6xmA-48" target="UAhqLrGlFkXDv-Zl6xmA-22">
          <mxGeometry relative="1" as="geometry">
            <Array as="points">
              <mxPoint x="645" y="550" />
              <mxPoint x="40" y="550" />
              <mxPoint x="40" y="153" />
            </Array>
          </mxGeometry>
        </mxCell>
        <mxCell id="UAhqLrGlFkXDv-Zl6xmA-52" style="edgeStyle=orthogonalEdgeStyle;rounded=0;orthogonalLoop=1;jettySize=auto;html=1;exitX=1;exitY=0.5;exitDx=0;exitDy=0;entryX=0.5;entryY=1;entryDx=0;entryDy=0;" edge="1" parent="1" source="UAhqLrGlFkXDv-Zl6xmA-50" target="UAhqLrGlFkXDv-Zl6xmA-38">
          <mxGeometry relative="1" as="geometry" />
        </mxCell>
        <mxCell id="UAhqLrGlFkXDv-Zl6xmA-50" value="Партнерская система колл центра" style="rounded=0;whiteSpace=wrap;html=1;" vertex="1" parent="1">
          <mxGeometry x="280" y="480" width="90" height="50" as="geometry" />
        </mxCell>
        <mxCell id="UAhqLrGlFkXDv-Zl6xmA-54" style="edgeStyle=orthogonalEdgeStyle;rounded=0;orthogonalLoop=1;jettySize=auto;html=1;entryX=0;entryY=0.5;entryDx=0;entryDy=0;" edge="1" parent="1" source="UAhqLrGlFkXDv-Zl6xmA-53" target="UAhqLrGlFkXDv-Zl6xmA-50">
          <mxGeometry relative="1" as="geometry" />
        </mxCell>
        <mxCell id="UAhqLrGlFkXDv-Zl6xmA-53" value="Сотрудник партнерского&lt;div&gt;кол центра&lt;/div&gt;" style="shape=umlActor;verticalLabelPosition=bottom;verticalAlign=top;html=1;outlineConnect=0;" vertex="1" parent="1">
          <mxGeometry x="140" y="470" width="20" height="40" as="geometry" />
        </mxCell>
        <mxCell id="UAhqLrGlFkXDv-Zl6xmA-55" style="edgeStyle=orthogonalEdgeStyle;rounded=0;orthogonalLoop=1;jettySize=auto;html=1;entryX=0;entryY=0.3333333333333333;entryDx=0;entryDy=0;entryPerimeter=0;" edge="1" parent="1" source="UAhqLrGlFkXDv-Zl6xmA-22" target="UAhqLrGlFkXDv-Zl6xmA-53">
          <mxGeometry relative="1" as="geometry">
            <Array as="points">
              <mxPoint x="50" y="160" />
              <mxPoint x="50" y="483" />
            </Array>
          </mxGeometry>
        </mxCell>
      </root>
    </mxGraphModel>
  </diagram>
</mxfile>
